# xmcd CD database file
#
# Track frame offsets:
#	150
#	14170
#	27070
#	48945
#	89280
#	106655
#	117425
#	130617
#	146177
#	158965
#
# Disc length: 2347 seconds
#
# Revision: 3
# Processed by: cddbd v1.5.2PL0 Copyright (c) Steve Scherf et al.
# Submitted via: CDex 1.51
#
DISCID=7f09290a
DTITLE=Fleetwood Mac - Early Greatest Hits - Dzordz and Gonzo - Studio 
DYEAR=1999
DGENRE=Blues
TTITLE0=Albatross
TTITLE1=Black Magic Women
TTITLE2=Closing My Eyes
TTITLE3=Oh Well
TTITLE4=Show-Biz Blues
TTITLE5=Like Crying
TTITLE6=I Loved Another Woman
TTITLE7=Rattlesnake Shake
TTITLE8=Underway
TTITLE9=Need Your Love So Bad
EXTD=remastered YEAR: 1999
EXTT0=
EXTT1=
EXTT2=
EXTT3=
EXTT4=
EXTT5=
EXTT6=
EXTT7=
EXTT8=
EXTT9=
PLAYORDER=
